# xmcd CD database file
#
# Track frame offsets:
#	150
#	67605
#	134817
#	178617
#	219827
#
# Disc length: 3577 seconds
#
# Revision: 0
# Processed by: cddbd v1.5.2PL0 Copyright (c) Steve Scherf et al.
# Submitted via: CDex 1.70beta2
#
DISCID=410df705
DTITLE=Rosario Giuliani with Enrico Pieranunzi - Jazz Italiano Live 2007
DYEAR=2007
DGENRE=Jazz
TTITLE0=All blues
TTITLE1=So what
TTITLE2=Mr.Dodo
TTITLE3=Dream house
TTITLE4=Dr.Jackle
EXTD=YEAR: 2007
EXTT0=
EXTT1=
EXTT2=
EXTT3=
EXTT4=
PLAYORDER=
